<svg width="18" height="29" viewBox="0 0 18 29" fill="none" xmlns="http://www.w3.org/2000/svg">
<path d="M17.7459 4.00787C17.5082 3.63909 17.1611 3.6285 16.7655 3.61643C16.7206 3.61506 16.6752 3.61368 16.6292 3.61175C16.5942 3.61012 16.5556 3.61075 16.5152 3.6114C16.3547 3.61401 16.1671 3.61707 16.0725 3.48046C15.9629 3.32208 15.9733 3.01601 15.9819 2.76334C15.9846 2.68349 15.9871 2.60893 15.9856 2.5461C15.9702 1.95914 15.9381 1.33563 15.7145 1.1272C15.5459 0.97081 15.0415 0.992476 14.5763 1.01246C14.4255 1.01893 14.2788 1.02523 14.149 1.02523H4.24712C4.04775 1.02523 3.83876 1.00878 3.63343 0.99262C3.23332 0.961125 2.84706 0.93072 2.57276 1.02523C2.17468 1.16307 2.14773 1.88737 2.12234 2.56941L2.12098 2.60611C2.09967 3.16916 1.96197 3.60363 1.50559 3.55987C0.974795 3.50979 0.446622 3.494 0.206632 3.9808C-0.0768018 4.55677 -0.0183467 5.15969 0.0863552 6.2396C0.101311 6.39386 0.117211 6.55785 0.133193 6.73289H17.899C17.9091 6.60495 17.92 6.47865 17.9306 6.3544C18.0138 5.38281 18.0863 4.53628 17.7459 4.00787Z" fill="#8047F8"/>
<path fill-rule="evenodd" clip-rule="evenodd" d="M1.51674 7.80395C1.79421 11.6093 2.06864 15.419 2.34309 19.2288L2.34326 19.2312C2.49227 21.2998 2.64128 23.3684 2.79078 25.4363H3.35765C3.39627 25.76 3.44047 26.1596 3.48707 26.5809C3.58166 27.4362 3.68616 28.3811 3.77402 28.9617H3.83672C4.41412 28.7476 8.40574 27.0187 8.40753 20.1355C8.40679 20.1158 8.40744 20.0962 8.40945 20.0767H7.42329C7.37555 20.0763 7.32928 20.0601 7.29159 20.0307C7.2539 20.0014 7.22689 19.9604 7.2147 19.9142C7.1186 19.6736 7.04112 19.426 6.98293 19.1736C6.40279 19.5056 5.94209 20.0126 5.66649 20.6223C5.40488 19.9978 5.37063 19.3012 5.56975 18.654C5.76886 18.0068 6.18866 17.4503 6.7558 17.0817C6.76311 15.0732 7.50524 13.137 8.84171 11.6397L8.86257 11.6211C8.90142 11.5871 8.95115 11.5681 9.00273 11.5677C9.03255 11.568 9.06201 11.5744 9.08923 11.5867C9.11678 11.5991 9.14142 11.6171 9.16155 11.6397C10.5136 13.139 11.2518 15.0938 11.2289 17.1142C11.8067 17.4725 12.235 18.0287 12.4345 18.6793C12.6339 19.33 12.591 20.0311 12.3136 20.6525C12.0395 20.0418 11.5784 19.5344 10.9972 19.2037C10.9617 19.4484 10.8963 19.6878 10.8025 19.9165C10.77 20.014 10.7051 20.0767 10.6402 20.0767H9.58855C9.59021 20.0884 9.59139 20.1001 9.59206 20.1119L9.59246 20.1146V20.1203C9.59284 20.1304 9.59286 20.1406 9.5925 20.1507C9.60689 27.2316 13.8509 28.8388 14.2086 28.9617H14.3309C14.3622 28.404 14.4639 27.6344 14.563 26.8841C14.6313 26.3671 14.6984 25.8593 14.7404 25.4363H15.3139C15.4974 22.8315 15.6862 20.234 15.8749 17.6365L15.875 17.6351L15.8751 17.6343C16.1166 14.3118 16.358 10.9891 16.5886 7.65101H1.55346C1.51018 7.65958 1.51313 7.73131 1.51674 7.80395ZM9.00273 11.5677L9.00163 11.5677H9.00395L9.00273 11.5677Z" fill="#8047F8"/>
</svg>
